<svg xmlns:xlink="http://www.w3.org/1999/xlink" width="318.661" xmlns="http://www.w3.org/2000/svg" height="239.752" id="screenshot-891dba57-6105-803d-8003-d50809ca94d8" viewBox="0 0 318.661 239.752" style="-webkit-print-color-adjust: exact;" fill="none" version="1.1"><g id="shape-891dba57-6105-803d-8003-d50809ca94d8" width="375.427" xmlns:xlink="http://www.w3.org/1999/xlink" version="1.1" height="101.932" rx="0" ry="0" style="fill: rgb(0, 0, 0);"><g id="shape-891dba57-6105-803d-8003-d50809caf009" ry="0" rx="0" style="fill: rgb(0, 0, 0);"><g id="shape-891dba57-6105-803d-8003-d50809cf644e" ry="0" rx="0" style="fill: rgb(0, 0, 0);"><g id="shape-891dba57-6105-803d-8003-d50809cf644f" ry="0" rx="0" style="fill: rgb(0, 0, 0);"><g id="shape-891dba57-6105-803d-8003-d50809cf6450" rx="0" ry="0" style="fill: rgb(0, 0, 0);"><g id="shape-891dba57-6105-803d-8003-d50809cf6451" class="fills" rx="0" ry="0" style="fill: rgb(0, 0, 0);"><g id="shape-891dba57-6105-803d-8003-d50809d287db"><g class="fills" id="fills-891dba57-6105-803d-8003-d50809d287db"><path fill-rule="evenodd" rx="0" ry="0" d="M134.154,0.158C113.830,0.788,97.397,2.443,79.153,5.701C74.853,6.469,66.961,8.283,61.318,9.799C54.503,11.633,44.663,14.956,40.658,16.776C39.792,17.171,38.548,17.706,37.895,17.969C36.074,18.698,31.176,21.119,28.484,22.618C16.103,29.515,6.917,38.011,2.594,46.568C0.948,49.825,0.986,50.990,2.770,52.045C4.358,52.984,5.023,52.485,6.782,49.034C10.746,41.263,19.446,33.169,30.150,27.297C31.113,26.767,32.200,26.164,32.568,25.953C34.842,24.642,42.372,21.247,46.068,19.863C47.167,19.451,48.667,18.889,49.400,18.615C50.614,18.160,54.012,17.050,58.152,15.754C59.022,15.480,60.859,14.966,62.234,14.606C63.609,14.250,65.561,13.732,66.567,13.459C67.576,13.185,69.152,12.801,70.068,12.602C70.986,12.404,72.936,11.982,74.401,11.663C78.438,10.784,81.866,10.116,83.903,9.815C84.912,9.664,86.861,9.355,88.236,9.129C91.400,8.607,95.796,7.964,98.486,7.632C100.842,7.341,106.879,6.730,110.987,6.369C112.041,6.276,113.692,6.123,114.655,6.032C121.184,5.409,132.947,4.892,144.599,4.714L152.129,4.598L152.573,4.179C153.891,2.938,153.645,0.690,152.134,0.160C151.527,-0.053,141.016,-0.053,134.154,0.158ZZM133.654,8.062C125.326,8.358,118.226,8.885,106.561,10.068C98.589,10.877,94.873,11.394,84.884,13.087C80.922,13.758,72.961,15.445,69.235,16.402C67.586,16.824,65.147,17.454,63.817,17.796C54.200,20.282,39.534,25.918,33.650,29.392C33.055,29.743,32.079,30.278,31.484,30.577C30.380,31.137,27.507,32.882,26.150,33.819C21.154,37.273,18.806,39.156,16.211,41.798C11.512,46.580,8.870,50.784,7.989,54.883C7.633,56.546,7.447,72.446,7.786,72.446C7.858,72.446,8.142,72.210,8.410,71.926C13.035,67.021,31.374,58.206,43.400,55.107C44.133,54.916,45.709,54.476,46.901,54.127C48.093,53.778,49.892,53.296,50.900,53.057C56.890,51.626,60.789,50.737,62.402,50.433C63.411,50.244,65.810,49.787,67.734,49.418C71.696,48.657,75.560,47.999,77.653,47.725C78.431,47.625,80.869,47.283,83.070,46.969C90.853,45.857,93.132,45.591,101.735,44.792C112.728,43.772,115.704,43.541,125.570,42.933C128.024,42.783,137.960,42.376,144.572,42.155C149.392,41.994,151.991,41.994,156.472,42.150C159.626,42.260,162.236,42.323,162.271,42.285C162.306,42.250,162.138,41.776,161.895,41.233C160.730,38.629,158.826,33.648,157.654,30.158C156.131,25.604,154.831,21.794,153.065,16.704C152.360,14.669,151.399,11.851,150.927,10.442L150.072,7.881L143.739,7.906C140.253,7.918,135.717,7.989,133.654,8.062ZZM121.914,20.054C122.255,20.305,122.426,28.304,122.112,29.424C121.949,30.012,121.146,30.323,119.164,30.567C116.168,30.934,115.995,30.615,116.108,24.956C116.176,21.523,116.306,20.893,117.054,20.398C117.869,19.860,121.319,19.614,121.914,20.054ZZM84.505,25.195C84.688,25.870,84.673,34.090,84.488,34.442C84.224,34.937,82.566,35.469,80.950,35.575L79.497,35.670L79.289,35.183C79.003,34.517,78.993,26.657,79.276,26.001C79.758,24.886,84.232,24.198,84.505,25.195ZZM52.361,33.925C52.659,33.957,52.499,41.956,52.192,42.308C51.590,42.996,48.677,43.730,48.000,43.365C47.616,43.157,47.450,36.175,47.806,35.228C48.022,34.658,50.720,33.741,51.819,33.864C52.047,33.890,52.290,33.917,52.361,33.925ZZM150.822,45.716C137.772,45.834,133.953,45.932,124.571,46.387C116.319,46.789,99.926,48.145,92.986,48.999C71.673,51.623,54.689,55.255,40.151,60.295C31.931,63.143,23.044,67.194,18.449,70.188C17.835,70.587,17.092,71.039,16.798,71.193C11.035,74.199,2.363,83.027,0.695,87.582C-0.690,91.375,3.375,92.836,5.234,89.215C7.547,84.707,12.789,79.498,18.984,75.550C19.395,75.289,20.108,74.829,20.567,74.535C23.704,72.509,30.135,69.329,35.173,67.312C41.476,64.793,51.643,61.533,57.151,60.270C58.114,60.049,60.545,59.479,62.553,59.004C64.563,58.530,67.225,57.960,68.472,57.736C69.716,57.513,72.188,57.060,73.962,56.726C77.944,55.981,81.564,55.380,83.652,55.122C84.523,55.014,86.811,54.707,88.736,54.441C99.502,52.954,112.838,51.814,128.987,51.000C136.131,50.641,141.709,50.536,158.329,50.440C179.647,50.320,177.863,50.448,178.412,48.996C178.907,47.690,178.463,46.414,177.331,45.899C176.596,45.565,171.384,45.530,150.822,45.716ZZM26.649,49.576C26.649,53.575,26.376,54.187,24.288,54.818C23.425,55.079,23.468,55.237,23.443,51.570C23.415,47.447,23.393,47.494,25.734,46.527C26.672,46.138,26.649,46.068,26.649,49.576ZZM174.907,53.896C174.355,54.109,172.769,54.180,165.821,54.295C125.615,54.968,103.449,56.488,78.819,60.263C48.085,64.969,25.919,72.817,14.781,82.941C11.725,85.716,9.186,89.328,8.207,92.284L7.733,93.715L7.650,109.912C7.602,118.820,7.597,126.141,7.635,126.179C7.673,126.219,8.423,125.860,9.301,125.383C15.085,122.238,21.222,119.908,31.098,117.102C33.223,116.500,35.662,115.857,36.515,115.678C37.368,115.500,39.418,115.040,41.067,114.659C44.266,113.918,46.512,113.448,48.401,113.134C49.043,113.026,50.730,112.722,52.152,112.456C56.373,111.673,61.095,110.922,64.236,110.532C65.335,110.397,67.398,110.131,68.818,109.942C76.185,108.965,82.164,108.352,91.819,107.586C120.747,105.291,158.573,104.583,189.739,105.753C192.398,105.851,194.885,105.909,195.266,105.876L195.956,105.821L195.532,104.728C195.299,104.126,194.777,102.802,194.373,101.785C193.967,100.768,193.374,99.218,193.053,98.337C192.735,97.460,191.984,95.491,191.390,93.967C190.795,92.440,189.751,89.755,189.069,87.997C188.389,86.241,187.267,83.346,186.577,81.567C185.887,79.789,185.323,78.280,185.323,78.217C185.323,78.154,184.728,76.582,184.000,74.726C183.273,72.870,182.083,69.801,181.358,67.905C178.944,61.606,177.853,58.763,176.917,56.350C176.408,55.036,175.989,53.883,175.989,53.788C175.989,53.554,175.710,53.582,174.907,53.896ZZM160.803,59.250C167.224,60.777,172.042,69.530,172.975,81.357C173.113,83.089,173.244,92.975,173.176,96.277L173.156,97.161L159.323,97.161L145.487,97.161L145.487,90.488C145.487,77.215,146.652,70.994,150.290,64.826C152.704,60.730,157.140,58.379,160.803,59.250ZZM120.040,60.589C127.795,62.628,131.489,72.810,131.291,91.613L131.238,96.574L121.405,96.852C115.995,97.006,110.121,97.139,108.352,97.146L105.135,97.161L105.165,91.149C105.218,80.076,105.590,76.871,107.504,70.931C109.880,63.558,115.064,59.281,120.040,60.589ZZM85.762,64.876C91.616,66.923,94.153,74.907,94.153,91.284L94.153,97.297L93.360,97.392C92.926,97.445,92.008,97.530,91.320,97.583C89.993,97.681,80.375,98.543,77.153,98.851C76.097,98.952,74.504,99.143,73.610,99.273C72.717,99.407,71.949,99.515,71.902,99.515C71.741,99.515,71.819,84.795,71.990,82.954C73.269,69.156,78.473,62.325,85.762,64.876ZZM58.079,71.883C63.042,73.566,65.175,80.312,65.217,94.471L65.235,100.441L64.236,100.642C62.924,100.906,60.766,101.298,58.902,101.612C55.221,102.227,54.059,102.453,51.329,103.073C47.011,104.055,47.332,104.409,47.312,98.673C47.242,80.179,51.477,69.643,58.079,71.883ZZM38.302,79.897C41.200,81.831,42.475,88.690,42.477,102.373C42.480,105.128,42.472,105.153,41.564,105.374C38.999,105.997,35.858,106.881,33.690,107.591C32.290,108.051,31.033,108.428,30.897,108.428C30.358,108.428,30.624,93.324,31.244,88.760C32.295,81.012,34.960,77.665,38.302,79.897ZZM21.200,89.024C23.724,90.310,24.532,94.085,24.554,104.688L24.567,110.786L22.818,111.519C21.854,111.921,19.804,112.866,18.264,113.616C16.721,114.370,15.406,114.985,15.341,114.985C15.147,114.985,15.265,101.273,15.479,99.095C16.189,91.774,18.525,87.663,21.200,89.024ZZM137.905,109.282C116.517,109.676,93.089,111.047,77.901,112.795C68.994,113.820,67.305,114.026,64.650,114.410C59.775,115.113,49.728,116.821,46.901,117.429C39.730,118.966,37.218,119.541,35.150,120.114C33.913,120.455,31.828,121.025,30.521,121.379C12.869,126.141,-2.587,135.800,0.364,140.223C1.438,141.830,3.342,141.614,4.717,139.723C7.756,135.547,15.501,131.297,26.983,127.505C31.570,125.991,38.688,124.067,42.753,123.240C44.118,122.964,46.622,122.439,48.318,122.075C51.372,121.420,52.363,121.244,59.318,120.121C66.648,118.941,70.871,118.391,79.402,117.509C81.145,117.328,83.993,117.032,85.735,116.849C89.870,116.414,96.574,115.879,100.654,115.661C102.441,115.563,105.140,115.410,106.653,115.317C131.311,113.802,158.600,113.458,186.238,114.317C202.457,114.819,224.498,116.269,234.743,117.504C235.475,117.592,237.613,117.821,239.492,118.014C243.163,118.388,250.272,119.320,253.659,119.870C254.806,120.056,257.280,120.438,259.159,120.716C266.955,121.874,281.739,125.182,288.132,127.201C289.477,127.625,290.952,128.075,291.409,128.201C299.295,130.343,310.235,136.001,313.884,139.821C316.071,142.109,318.658,141.647,318.661,138.970C318.663,135.383,306.697,127.957,294.912,124.230C294.270,124.027,292.475,123.449,290.925,122.947C289.374,122.444,286.674,121.663,284.923,121.214C283.174,120.762,280.881,120.161,279.827,119.878C278.773,119.594,276.786,119.137,275.411,118.860C274.036,118.584,271.464,118.054,269.698,117.680C258.469,115.309,237.445,112.544,222.408,111.459C193.756,109.395,167.942,108.729,137.905,109.282ZZM140.989,117.956C136.025,118.044,123.999,118.371,120.155,118.521C108.992,118.961,108.166,119.001,99.987,119.528C89.797,120.181,74.386,121.769,65.569,123.070C62.452,123.529,59.338,123.979,58.651,124.069C57.145,124.263,55.738,124.519,50.817,125.486C48.755,125.893,46.391,126.352,45.568,126.505C36.292,128.243,22.309,132.751,16.001,136.034C12.420,137.900,8.297,140.705,7.773,141.635C7.625,141.901,7.520,185.603,7.668,185.603C7.725,185.603,8.476,185.339,9.334,185.015C10.809,184.458,14.781,183.300,18.899,182.223C22.145,181.374,30.749,179.673,34.899,179.061C45.066,177.561,53.843,176.494,59.903,176.019C61.092,175.926,64.244,175.665,66.901,175.434C75.698,174.678,83.780,174.143,91.152,173.834C100.105,173.457,107.863,173.169,113.654,172.998C116.999,172.900,122.288,172.742,125.404,172.646C134.407,172.372,170.862,172.254,180.490,172.468C193.392,172.757,201.645,172.978,206.407,173.164C208.791,173.257,213.666,173.445,217.241,173.583C228.728,174.025,238.602,174.638,249.993,175.615C252.696,175.846,256.221,176.142,257.827,176.275C262.112,176.629,266.707,177.144,272.076,177.873C273.361,178.046,275.647,178.345,277.160,178.538C281.245,179.053,284.936,179.638,289.409,180.482C295.775,181.683,296.736,181.886,299.910,182.690C301.561,183.109,303.473,183.591,304.161,183.762C305.827,184.176,308.313,184.952,309.723,185.497C310.353,185.741,310.933,185.939,311.016,185.939C311.098,185.939,311.161,176.542,311.161,164.009L311.161,142.077L309.452,140.836C307.367,139.321,303.804,137.207,302.045,136.441C301.330,136.127,300.031,135.554,299.160,135.165C294.621,133.138,285.987,130.315,279.910,128.869C278.535,128.542,276.322,128.010,274.992,127.683C270.179,126.500,259.636,124.577,251.993,123.484C241.239,121.947,236.090,121.372,222.659,120.204C202.089,118.421,167.964,117.479,140.989,117.956ZZM161.383,124.330C166.680,125.712,170.767,131.398,172.599,139.939C173.060,142.079,173.331,151.731,173.191,161.008L173.143,164.238L162.274,164.160C156.297,164.117,150.074,164.082,148.446,164.082L145.487,164.082L145.487,154.624C145.490,144.882,145.598,142.519,146.170,139.643C148.245,129.250,154.826,122.623,161.383,124.330ZZM120.020,125.767C121.746,126.139,124.235,127.688,125.477,129.168C127.545,131.631,128.950,134.329,129.996,137.852C131.100,141.577,131.358,145.259,131.286,156.432L131.238,164.333L128.822,164.366C124.521,164.424,107.431,164.785,106.498,164.838C105.999,164.866,105.492,164.851,105.374,164.803C105.100,164.697,105.063,149.699,105.321,145.201C106.036,132.769,112.547,124.160,120.020,125.767ZZM202.452,125.830C207.303,126.985,211.495,133.113,213.094,141.383C213.330,142.599,213.380,144.483,213.443,153.976L213.515,165.139L210.961,165.039C209.556,164.986,205.107,164.856,201.075,164.753C197.040,164.647,192.316,164.512,190.572,164.449L187.405,164.333L187.357,156.852C187.260,142.338,188.098,136.765,191.096,132.026C194.343,126.895,198.164,124.810,202.452,125.830ZZM84.897,128.510C88.522,129.610,92.256,135.200,93.380,141.215C93.526,142.001,93.734,143.061,93.839,143.568C93.967,144.186,94.055,147.973,94.103,154.943L94.175,165.393L92.289,165.494C87.767,165.740,84.046,165.956,78.985,166.267C76.007,166.453,73.174,166.604,72.695,166.604L71.819,166.604L71.819,156.384C71.819,150.440,71.889,145.570,71.990,144.741C73.322,133.635,78.857,126.676,84.897,128.510ZZM238.501,128.874C241.941,130.519,245.075,135.614,246.139,141.298C246.330,142.315,246.571,143.563,246.679,144.073C246.807,144.691,246.894,148.619,246.942,155.970L247.015,166.940L246.628,166.940C246.415,166.938,243.128,166.749,239.324,166.518C235.520,166.287,231.022,166.023,229.325,165.928C227.629,165.835,225.843,165.715,225.353,165.662L224.465,165.569L224.538,155.450C224.583,148.825,224.676,144.899,224.806,144.073C226.633,132.412,232.434,125.975,238.501,128.874ZZM58.272,132.568C61.797,134.306,64.452,140.361,65.140,148.222C65.406,151.253,65.381,167.098,65.110,167.189C64.997,167.226,62.952,167.458,60.568,167.699C58.184,167.940,54.697,168.319,52.817,168.545C50.938,168.771,48.941,168.957,48.379,168.957L47.357,168.957L47.270,166.815C47.011,160.508,47.387,149.284,48.000,145.188C49.360,136.064,53.946,130.431,58.272,132.568ZZM263.736,132.314C266.978,133.540,269.677,138.663,270.774,145.670C271.030,147.310,271.333,168.595,271.108,169.185C271.015,169.429,271.281,169.449,262.910,168.535C259.977,168.216,256.713,167.874,255.659,167.779C254.209,167.646,253.692,167.535,253.534,167.324C253.067,166.697,253.371,148.513,253.900,145.334C255.433,136.132,259.518,130.722,263.736,132.314ZZM37.782,136.448C40.026,137.882,41.892,144.020,42.314,151.349C42.505,154.687,42.540,169.288,42.357,169.562C42.289,169.665,41.709,169.796,41.067,169.856C39.850,169.972,34.970,170.745,32.423,171.227C31.457,171.411,30.887,171.451,30.782,171.343C30.433,170.991,30.727,149.993,31.113,147.516C32.456,138.955,35.027,134.685,37.782,136.448ZZM282.873,136.230C285.164,137.199,287.226,142.853,287.824,149.789C287.989,151.711,288.069,171.684,287.911,171.843C287.866,171.888,285.297,171.524,282.203,171.034C279.109,170.544,276.520,170.142,276.452,170.140C276.196,170.130,276.309,151.206,276.580,148.870C277.508,140.863,279.498,136.318,282.206,136.016C282.278,136.009,282.579,136.104,282.873,136.230ZZM21.200,141.680C22.000,142.446,23.079,144.940,23.558,147.135C24.544,151.633,24.552,151.736,24.559,162.653L24.567,172.742L24.150,172.789C23.922,172.817,21.874,173.299,19.601,173.862C17.328,174.424,15.413,174.829,15.351,174.763C15.140,174.552,15.238,152.381,15.459,150.661C15.797,148.019,17.313,143.496,18.362,141.994C19.074,140.976,20.324,140.838,21.200,141.680ZZM300.041,141.680C300.966,142.571,302.146,145.653,302.730,148.697C303.328,151.819,303.373,152.788,303.448,164.062L303.521,175.391L303.049,175.271C302.141,175.037,295.572,173.483,295.077,173.382C293.853,173.136,293.948,174.085,294.044,163.268C294.129,153.353,294.217,151.806,294.909,148.207C296.023,142.416,298.086,139.791,300.041,141.680ZZM135.320,176.469C111.822,176.735,94.198,177.363,76.985,178.551C60.979,179.653,57.015,180.030,42.525,181.826C34.744,182.793,25.192,184.533,18.909,186.135C6.983,189.172,1.034,192.221,1.360,195.129C1.578,197.080,3.498,197.937,5.088,196.792C7.510,195.049,8.493,194.471,10.114,193.836C14.058,192.291,16.716,191.520,23.899,189.827C25.796,189.380,30.737,188.484,36.985,187.451C39.654,187.012,43.488,186.487,46.150,186.201C47.387,186.065,50.015,185.769,51.984,185.538C59.251,184.689,65.443,184.131,72.652,183.677C74.805,183.541,79.457,183.240,82.985,183.006C132.716,179.736,219.178,180.756,259.076,185.083C272.166,186.502,276.138,187.004,282.494,188.047C289.520,189.199,290.872,189.446,293.660,190.086C295.082,190.412,297.180,190.892,298.327,191.153C304.419,192.535,309.026,194.155,312.378,196.096C315.519,197.917,317.788,197.058,317.359,194.207C316.937,191.377,303.797,186.939,287.410,184.094C278.743,182.587,276.821,182.305,269.595,181.477C266.764,181.153,263.538,180.781,262.429,180.650C255.160,179.796,239.748,178.626,224.741,177.787C204.979,176.685,166.486,176.117,135.320,176.469ZZM133.905,185.101C122.476,185.249,105.002,185.754,96.070,186.198C74.273,187.278,69.736,187.602,53.818,189.225C46.958,189.923,42.296,190.523,37.484,191.322C36.430,191.495,34.443,191.801,33.068,191.997C28.049,192.715,18.994,194.833,14.671,196.297C11.401,197.404,10.112,197.969,8.523,198.992L7.648,199.557L7.690,219.591L7.733,239.627L128.071,239.675C194.258,239.703,262.097,239.733,278.826,239.743C313.956,239.765,311.856,239.843,311.588,238.500C311.530,238.213,311.412,230.717,311.324,221.839C311.236,212.960,311.144,204.336,311.121,202.671L311.078,199.645L309.329,198.763C307.182,197.686,299.765,195.255,297.160,194.775C296.839,194.717,296.091,194.561,295.494,194.428C290.922,193.419,289.633,193.150,287.578,192.773C284.220,192.160,274.297,190.684,269.409,190.068C266.192,189.664,254.771,188.544,247.993,187.966C241.470,187.414,239.889,187.308,231.576,186.871C200.428,185.239,168.426,184.659,133.905,185.101ZZM163.322,193.758C167.791,194.988,171.680,199.152,172.822,203.932C173.156,205.331,173.489,231.234,173.206,233.650L173.121,234.366L159.298,234.366L145.475,234.366L145.528,219.528L145.580,204.688L145.962,203.434C148.305,195.714,155.614,191.641,163.322,193.758ZZM121.234,194.426C126.092,195.669,129.881,199.632,130.944,204.582C131.185,205.705,131.225,207.641,131.278,220.116L131.341,234.368L118.288,234.323L105.236,234.280L105.193,221.502C105.145,207.503,105.223,205.403,105.883,203.344C107.258,199.042,111.049,195.373,115.069,194.456C117.583,193.883,119.079,193.876,121.234,194.426ZZM203.928,194.556C208.479,195.900,212.228,200.077,213.254,204.939C213.440,205.820,213.485,208.794,213.488,220.201L213.490,234.368L200.448,234.323L187.405,234.280L187.360,222.007C187.290,204.391,187.393,203.442,189.754,199.896C191.826,196.777,194.734,194.890,198.656,194.117C199.652,193.921,202.601,194.167,203.928,194.556ZZM85.828,196.171C89.493,197.246,92.507,200.546,93.684,204.773C94.078,206.190,94.301,217.059,94.175,228.775L94.115,234.366L82.857,234.366L71.596,234.366L71.711,220.620C71.801,209.829,71.877,206.639,72.060,205.780C73.616,198.482,79.565,194.330,85.828,196.171ZZM238.717,196.191C242.225,197.206,245.243,200.556,246.282,204.580C246.784,206.531,246.970,211.976,246.957,224.360C246.947,233.796,246.912,234.268,246.242,234.323C244.328,234.479,224.932,234.373,224.766,234.205C224.475,233.911,224.498,207.832,224.791,206.127C225.760,200.461,229.220,196.774,234.492,195.795C235.287,195.646,237.580,195.862,238.717,196.191ZZM59.118,198.751C61.632,199.805,63.832,202.792,64.856,206.539C65.220,207.865,65.225,208.071,65.280,221.125L65.333,234.368L56.450,234.326L47.568,234.280L47.553,222.680C47.538,206.863,47.608,206.061,49.327,202.990C51.683,198.788,55.384,197.183,59.118,198.751ZZM263.344,198.218C266.840,198.886,269.703,202.103,270.684,206.463C271.017,207.945,271.331,233.241,271.027,234.155C270.942,234.414,267.118,234.446,265.046,234.205C264.253,234.112,262.960,234.105,261.954,234.185C261.006,234.263,258.710,234.285,256.853,234.238L253.478,234.147L253.536,221.015C253.604,206.338,253.539,207.172,254.841,203.957C256.005,201.081,257.686,199.328,259.992,198.582C260.589,198.391,261.189,198.198,261.327,198.153C261.749,198.017,262.406,198.040,263.344,198.218ZZM37.953,201.084C39.689,201.960,40.808,203.668,41.717,206.827C42.382,209.148,42.482,211.293,42.485,223.225L42.485,234.366L36.568,234.366L30.649,234.366L30.649,222.718C30.649,208.467,30.729,207.651,32.415,204.135C33.896,201.051,35.803,199.999,37.953,201.084ZZM283.264,200.928C285.016,201.589,286.300,203.455,287.244,206.714C287.861,208.839,288.014,212.694,287.957,224.614L287.909,234.280L285.410,234.366C281.852,234.484,276.655,234.295,276.500,234.039C276.317,233.743,276.480,210.655,276.675,208.977C277.358,203.128,280.128,199.743,283.264,200.928ZZM21.272,204.226C22.830,205.298,24.010,207.887,24.479,211.275C24.599,212.159,24.722,228.007,24.652,234.157C24.652,234.326,23.651,234.361,19.942,234.326L15.233,234.280L15.195,225.453C15.137,212.059,15.343,209.407,16.658,206.717C17.985,203.995,19.636,203.103,21.272,204.226ZZM299.795,204.002C300.761,204.512,302.239,206.503,302.823,208.081C303.415,209.673,303.531,212.112,303.433,220.997C303.383,225.530,303.338,230.352,303.335,231.716L303.328,234.198L298.761,234.198C295.258,234.198,294.179,234.147,294.124,233.987C293.840,233.155,294.307,210.160,294.633,208.945C295.622,205.250,297.945,203.025,299.795,204.002ZZ" style="-webkit-print-color-adjust: exact; fill: rgb(255, 255, 255);"/></g></g></g></g></g></g></g></g></svg>